<mxfile host="app.diagrams.net" modified="2023-04-11T13:43:13.685Z" agent="Mozilla/5.0 (X11; Linux x86_64) AppleWebKit/537.36 (KHTML, like Gecko) Chrome/112.0.0.0 Safari/537.36" version="21.1.5" etag="qwq-Nwa1nsLnIoT_jE6G" type="github">
  <diagram name="Page-1" id="v8Zh46qO-rGJz9tDEeoy">
    <mxGraphModel>
      <root>
        <mxCell id="0" />
        <mxCell id="1" parent="0" />
      </root>
    </mxGraphModel>
  </diagram>
</mxfile>
